<svg height="514pt" viewBox="-8 0 514 514.84775" width="514pt" xmlns="http://www.w3.org/2000/svg"><path d="m363.609375 514.847656h-257.425781v-57.984375l-93.523438-112.238281c-18.503906-22.234375-15.703125-55.601562 6.242188-74.410156 9.636718-8.253906 21.914062-12.789063 34.574218-12.789063 15.832032 0 30.730469 6.980469 40.867188 19.113281l27.929688 33.511719v-229.605469c0-26.613281 21.65625-48.265624 48.265624-48.265624 6.277344 0 12.277344 1.203124 17.78125 3.394531 5.582032-20.484375 24.339844-35.574219 46.578126-35.574219 22.234374 0 40.976562 15.089844 46.574218 35.574219 5.503906-2.191407 11.503906-3.394531 17.78125-3.394531 26.609375 0 48.265625 21.652343 48.265625 48.265624v18.839844c5.035157-1.769531 10.441407-2.75 16.089844-2.75 26.609375 0 48.265625 21.65625 48.265625 48.265625v278.871094l-48.265625 64.355469zm0 0" fill="#ecce93"/><path d="m315.34375 35.136719v206.199219c0 8.878906 7.207031 16.089843 16.085938 16.089843 8.882812 0 16.089843-7.210937 16.089843-16.089843v-160.890626c0-20.949218-13.5-38.644531-32.175781-45.308593zm0 0" fill="#e5bd76"/><path d="m283.164062 35.074219c-.546874.191406-1.160156.273437-1.691406.5-4.164062-15.269531-15.667968-27.546875-30.488281-32.789063v238.550782c0 8.878906 7.210937 16.089843 16.089844 16.089843 8.882812 0 16.089843-7.210937 16.089843-16.089843zm0 0" fill="#e5bd76"/><path d="m218.808594 2.785156c-14.800782 5.242188-26.304688 17.519532-30.488282 32.789063-.546874-.210938-1.144531-.308594-1.691406-.5v206.261719c0 8.878906 7.207032 16.089843 16.089844 16.089843s16.089844-7.210937 16.089844-16.089843zm0 0" fill="#e5bd76"/><g fill="#a477bd"><path d="m331.640625 264.085938v41.605468h32.175781v-41.605468l20.804688 20.800781 22.75-22.75-59.640625-59.640625-59.644531 59.640625 22.75 22.75zm0 0"/><path d="m363.816406 443.832031v-41.605469h-32.175781v41.605469l-20.804687-20.804687-22.75 22.75 59.644531 59.640625 59.640625-59.640625-22.75-22.75zm0 0"/><path d="m439.550781 294.316406-22.75 22.75 20.800781 20.800782h-41.605468v32.179687h41.605468l-20.800781 20.804687 22.75 22.75 59.640625-59.644531zm0 0"/><path d="m299.460938 370.046875v-32.179687h-41.605469l20.804687-20.800782-22.75-22.75-59.644531 59.640625 59.644531 59.644531 22.75-22.75-20.804687-20.804687zm0 0"/><path d="m331.640625 337.867188h32.175781v32.179687h-32.175781zm0 0"/></g></svg>